<?xml version="1.0" encoding="UTF-8"?>
<svg id="Layer_2" data-name="Layer 2" xmlns="http://www.w3.org/2000/svg" xmlns:xlink="http://www.w3.org/1999/xlink" viewBox="0 0 108.73 122.28">
  <defs>
    <style>
      .cls-1 {
        fill: url(#linear-gradient-2);
      }

      .cls-2 {
        fill: #fff;
      }

      .cls-3 {
        fill: url(#linear-gradient);
      }
    </style>
    <linearGradient id="linear-gradient" x1="0" y1="30.11" x2="30.43" y2="30.11" gradientUnits="userSpaceOnUse">
      <stop offset="0" stop-color="#ff6f02"/>
      <stop offset="1" stop-color="#ff048a"/>
    </linearGradient>
    <linearGradient id="linear-gradient-2" x1="62.87" y1="72.94" x2="14.99" y2="28.12" xlink:href="#linear-gradient"/>
  </defs>
  <g id="Layer_1-2" data-name="Layer 1">
    <g>
      <path class="cls-3" d="M.33,60.21h-.33V0h.33c16.6,0,30.11,13.51,30.11,30.11S16.93,60.21.33,60.21ZM.65.65v58.91c16.09-.18,29.13-13.32,29.13-29.45S16.74.83.65.65Z"/>
      <path class="cls-1" d="M62,16.3c-31.85,0-57.67,25.82-57.67,57.67l57.35-.49.33-57.18Z"/>
      <path class="cls-2" d="M29.78,30.11c0,14.19-10.09,26.07-23.47,28.84-.06.23-.13.47-.19.7,13.84-2.71,24.31-14.92,24.31-29.54,0-1.43-.11-2.83-.3-4.21-.2.13-.4.27-.61.41.16,1.25.25,2.51.25,3.8Z"/>
      <g>
        <path d="M63.79,104.3c-14.88,0-26.99-12.11-26.99-26.99s12.11-26.99,26.99-26.99,26.99,12.11,26.99,26.99-12.11,26.99-26.99,26.99ZM63.79,50.81c-14.61,0-26.5,11.89-26.5,26.5s11.89,26.5,26.5,26.5,26.5-11.89,26.5-26.5-11.89-26.5-26.5-26.5Z"/>
        <path d="M63.79,108.76c-17.34,0-31.45-14.11-31.45-31.45s14.11-31.45,31.45-31.45,31.45,14.11,31.45,31.45-14.11,31.45-31.45,31.45ZM63.79,46.35c-17.07,0-30.96,13.89-30.96,30.96s13.89,30.96,30.96,30.96,30.96-13.89,30.96-30.96-13.89-30.96-30.96-30.96Z"/>
        <path d="M63.78,112.73c-19.53,0-35.43-15.89-35.43-35.43s15.89-35.43,35.43-35.43,35.43,15.89,35.43,35.43-15.89,35.43-35.43,35.43ZM63.78,42.37c-19.26,0-34.94,15.67-34.94,34.94s15.67,34.94,34.94,34.94,34.94-15.67,34.94-34.94-15.67-34.94-34.94-34.94Z"/>
        <path d="M63.77,117.22c-22.01,0-39.91-17.9-39.91-39.91s17.9-39.91,39.91-39.91,39.91,17.9,39.91,39.91-17.9,39.91-39.91,39.91ZM63.77,37.89c-21.74,0-39.42,17.68-39.42,39.42s17.68,39.42,39.42,39.42,39.42-17.68,39.42-39.42-17.68-39.42-39.42-39.42Z"/>
        <path d="M63.77,122.28c-24.79,0-44.97-20.17-44.97-44.97s20.17-44.97,44.97-44.97,44.97,20.17,44.97,44.97-20.17,44.97-44.97,44.97ZM63.77,32.84c-24.52,0-44.48,19.95-44.48,44.48s19.95,44.48,44.48,44.48,44.48-19.95,44.48-44.48-19.95-44.48-44.48-44.48Z"/>
      </g>
    </g>
  </g>
</svg>