<?xml version="1.0" encoding="UTF-8"?>
<svg id="Layer_2" data-name="Layer 2" xmlns="http://www.w3.org/2000/svg" viewBox="0 0 387.95 115.75">
  <defs>
    <style>
      .cls-1 {
        fill: #fff;
      }
    </style>
  </defs>
  <g id="Layer_1-2" data-name="Layer 1">
    <g>
      <path class="cls-1" d="M346.24,31.55c5.02-.77,10.23-1.44,15.29-.42,3.21.65,4.9,1.7,2.64,4.91-3.01,4.26-17.07,4.66-22.13,5.01-4.55,13.19-11.54,28.93-10.46,43.15.57,7.44,2.66,8.95,8.03,3.27,7.62-8.05,6.29-11.64,9.83-20.84,3.22-8.37,14.29-26.73,25.27-20.37,5.85,3.39,4.74,9.84,3.27,15.4-2.23,8.4-6.69,15.09-14.6,18.91-1.39.67-7.89,2.6-8.13,2.96-.69,1.07.34,4.54.97,5.75,4.87,9.38,18.89-2.51,23.05-7.45,1.51-1.8,5.16-9.25,7.53-8.06,3.69,1.86-2.7,10.43-4.26,12.28-6.32,7.5-16.41,14.16-26.65,12.99-4.95-.56-7.73-4.46-8.99-8.94-.37-1.31.27-3.22-1.15-3.8-4.14,6.44-11.53,17.73-20.46,11.72-3.72-2.51-3.3-8.35-4.32-12.19-4.19,6.04-8.79,16.5-17.89,12.69-12.06-5.04-2.25-26.51-.76-35.35-6.65,7.14-11.73,16.62-16.6,25.17-1.44,2.53-3.98,9.56-6.55,10.44-6.94,2.38-6.06-4.7-5.17-9.18-5.96,7.13-17.33,16.67-26.54,8.98-9.23-7.71-3.08-29.47,2.09-38.38,3-5.16,11.63-15.91,18.08-15.94,5.68-.02,10.51,4.98,10.09,10.59-.66,8.87-8.58,20.94-16.32,25.22-1.69.94-8.64,2.97-8.88,3.39-.72,1.21-.21,5.26.52,6.58,2.01,3.62,6.81,2.87,10.1,1.68,11.28-4.09,17.36-21.46,20.91-31.95,1.02-3.01,1.98-14.04,7.21-8.89,3.42,3.37.79,10.12.21,14.19,4.75-4.45,10.34-14.22,17.35-15.02,2.98-.34,7.24,3.15,7.15,6.24-.1,3.6-4.06,10.22-5.37,13.99-1.49,4.29-5.04,16.69-3.03,20.45,1.44,2.69,5.23-1.68,6.54-3.25,7.13-8.55,7.25-13.83,10.16-23.82,1.96-6.74,5.19-13.29,6.79-20.12.34-1.44-3.76-.19-4.42-.16-2.53.1-12.78.15-10.41-4.74,1.19-2.44,14.28-2.44,17.12-3.88l7.56-19.1c2.33-5.22,9.48-1.36,10,2.97.42,3.59-4.25,9.13-4.71,12.93ZM252.79,78.28c6.55-.85,11.27-7.94,14.24-13.37.99-1.81,5.24-10,3.25-11.44-2.28-1.66-7.94,5.26-9.2,6.92-1.64,2.17-9.97,16.2-8.3,17.89ZM372.55,53.84c-1.94-2.08-6.95,4.21-8.01,5.69-1.64,2.28-10.41,17.58-8.86,19.22,4.89-1.03,9.37-6.71,12.19-10.7,1.8-2.54,7.16-11.55,4.68-14.21Z"/>
      <path class="cls-1" d="M157.92,89.14c-.22-.21-.65-.04-.98.3-1.96,2.07-3.06,4.92-5.62,7.02-5.34,4.38-14.1,3.74-16.06-3.55-.64-.59-3.95,3.42-4.74,3.98-5.2,3.64-11.4.66-13.32-5.03-3.63-10.74,3.39-19.21,4.27-28.57.05-.56-.04-1.53-.6-1.52-2.01.04-12.4,19.11-13.86,22-2.13,4.23-4.75,14.1-9.85,15.16-4.54.95-4.58-2.47-4.38-6.03-3.56,4.28-5.39,7.1-11.58,6.62s-7.95-5.13-7.77-10.87c-4.73,4.85-12.11,14.75-19.57,8.48-9.65-8.11.08-32.34,6.85-40.33,4.99-5.89,14.8-12.3,22.85-9.66,1.85.61,6.56,5.64,7.22,7.41,1.14,3.08.11,5.88-.8,8.86-2.55,8.32-7.74,17.91-7.12,26.91.32,4.58,2.84,2.39,4.98.22,10.86-11.05,10.83-25.65,16.85-38.37,2.67-5.64,7.96-1.11,8.37,3.26.3,3.27-3.27,10.51-4.37,13.96-.14.44-.75,1.43.14,1.32,2.95-5.33,9.21-17.96,14.78-20.38,7.92-3.44,12.07,3.56,9.67,10.61-3.05,8.92-8.53,16.41-8.44,27,0,.89.26,1.74.56,2.56,2.18,1.49,8.66-5.12,9.49-7.18s.92-4.99,1.67-7.3c3.43-10.68,15.19-34.52,29.39-30.09,4.36,1.36,3.47,3.16,5.25,6.07,1.13,1.86,3.86,3.06,4.06,5.65-2.15,7.09-5.8,13.76-7.91,20.84-.88,2.95-2.41,8.86-1.86,11.78.44,2.32,5.01,4.48,1.38,7.09-2.62,1.88-5.78-.95-7.16-3.2-.76-1.24-1.61-4.86-1.8-5.05ZM60.27,90.51c2.42,1.65,9.3-8.05,10.53-9.91,5.56-8.41,8.33-18.13,13.28-26.85.72-2.8-1.85-1.76-3.42-1.04-7.02,3.25-16.35,15.37-18.93,22.6-.85,2.4-3.39,13.88-1.48,15.19ZM163.42,54.83c-2.09.11-6.36,4.13-7.85,5.77-4.56,5.02-8.53,12.93-10.26,19.47-.49,1.86-2.79,10.44.16,10.92,2.88.47,11.13-13.14,12.53-15.69,1.76-3.21,7.98-15.53,7.97-18.51,0-1.48-1.2-2.04-2.56-1.96Z"/>
      <path class="cls-1" d="M208.43,68.84c1.26.24.82-.27,1.15-.95,9.07-18.38,14.65-38.34,26.3-55.84,1.25-1.88,4.24-6.15,6.25-6.96,4.79-1.92,12.15,2.61,11.1,8.26-4.02,17.26-9.84,34.06-13.81,51.32-1.94,8.45-6.75,27.62-4.33,35.31.84,2.68,4.73,6.98-.59,7.91-11.11,1.96-11.85-13.6-11.47-20.91,1.12-21.38,11.39-42.32,16.06-62.99-.71.11-.88.89-1.19,1.41-7.57,12.69-15.35,28.98-21.07,42.64-2.04,4.86-4.87,15.79-7.54,19.36-1.73,2.32-6.68,3.86-8.9,1.5-2.9-3.08-1.6-9.34-1.87-13.22l9.2-52.63c-3.67,5.41-6.44,11.99-8.74,18.16-6.54,17.52-10.96,35.96-17.24,53.56-3.02,8.46-10.72,22.84-21.68,20.77-4.94-.93,1.89-4.73,2.84-5.63,5.46-5.21,11.12-20.69,13.91-28.09,8.59-22.79,15.06-48.63,26.81-69.94,4.39-7.97,10.56-19.71,16.49-4.53-1.47,15.32-6.85,30.23-9.57,45.42-.95,5.32-1.55,10.69-2.11,16.06Z"/>
      <path class="cls-1" d="M54.45,1c4.64-.59,10.7.18,14.22,3.47,8.96,8.37-.21,21.73-7.5,27.8-1.85,1.54-6.78,5.31-7.08.43-.11-1.78,4.9-6.68,6.21-8.85,8.73-14.45-1.7-16.97-13.61-10.78-10.32,5.36-19.87,13.14-16.91,26.04,4.77,20.83,29.69,40.27,11.76,62.73-11.21,14.04-45.68,15.61-41.14-9.04,1.05-5.68,7.7-16.93,14.65-14.89,3.86,1.14-.19,4.37-1.17,6.18-8.23,15.34,6.89,24.6,17.97,13.25,16.6-16.99-13.05-42.11-14.57-59.43C15.51,17.72,36.42,3.29,54.45,1Z"/>
    </g>
  </g>
</svg>